name rise35.5848peak51.9257fall54.8793.mot
datacolumns 19
datarows 11
range 3.99664600000000 4.01331200000000
endheader
time	ground_force1_vx	ground_force1_vy	ground_force1_vz	ground_force1_px	ground_force1_py	ground_force1_pz	ground_force2_vx	ground_force2_vy	ground_force2_vz	ground_force2_px	ground_force2_py	ground_force2_pz	ground_torque1_x	ground_torque1_y	ground_torque1_z	ground_torque2_x	ground_torque2_y	ground_torque2_z	
3.99664600000000	-6.07977200000000	41.03411400000000	-7.47575500000000	0.33286300000000	0.00000000000000	0.10577800000000	-58.65617000000000	805.37364300000002	-50.97724600000000	0.12226300000000	0.00000000000000	-0.07231500000000	0.00000000000000	-4.59291600000000	0.00000000000000	0.00000000000000	-20.96884400000000	0.00000000000000	
3.99831200000000	-6.73149200000000	48.11670500000000	-8.42092600000000	0.33689000000000	0.00000000000000	0.10646900000000	-59.59530400000000	802.77266699999996	-50.53427800000000	0.12139400000000	0.00000000000000	-0.07219000000000	0.00000000000000	-5.22801300000000	0.00000000000000	0.00000000000000	-20.91441700000000	0.00000000000000	
3.99997900000000	-7.28201600000000	55.29604600000000	-9.28415900000000	0.34046800000000	0.00000000000000	0.10710700000000	-60.53948900000000	799.99936400000001	-50.06813800000000	0.12052500000000	0.00000000000000	-0.07206300000000	0.00000000000000	-5.82305200000000	0.00000000000000	0.00000000000000	-20.85891800000000	0.00000000000000	
4.00164800000000	-7.71349400000000	62.48097400000000	-10.04532400000000	0.34366700000000	0.00000000000000	0.10769900000000	-61.48724000000000	797.04960800000003	-49.57884700000000	0.11965500000000	0.00000000000000	-0.07193200000000	0.00000000000000	-6.36488200000000	0.00000000000000	0.00000000000000	-20.80221300000000	0.00000000000000	
4.00331500000000	-8.01419600000000	69.60272800000000	-10.69079600000000	0.34654600000000	0.00000000000000	0.10825100000000	-62.43696800000000	793.91930000000002	-49.06646700000000	0.11878300000000	0.00000000000000	-0.07179800000000	0.00000000000000	-6.84430700000000	0.00000000000000	0.00000000000000	-20.74415400000000	0.00000000000000	
4.00498000000000	-8.17853000000000	76.61708900000001	-11.21355900000000	0.34915100000000	0.00000000000000	0.10877100000000	-63.38697800000000	790.60439199999996	-48.53110200000000	0.11791200000000	0.00000000000000	-0.07166100000000	0.00000000000000	-7.25622300000000	0.00000000000000	0.00000000000000	-20.68457900000000	0.00000000000000	
4.00664700000000	-8.20656100000000	83.50416100000000	-11.61276900000000	0.35152000000000	0.00000000000000	0.10926100000000	-64.33547200000000	787.10089900000003	-47.97290200000000	0.11703900000000	0.00000000000000	-0.07152100000000	0.00000000000000	-7.59939900000000	0.00000000000000	0.00000000000000	-20.62331400000000	0.00000000000000	
4.00831600000000	-8.10315300000000	90.26617899999999	-11.89286800000000	0.35368600000000	0.00000000000000	0.10972500000000	-65.28055400000000	783.40491399999996	-47.39205700000000	0.11616700000000	0.00000000000000	-0.07137800000000	0.00000000000000	-7.87597400000000	0.00000000000000	0.00000000000000	-20.56016900000000	0.00000000000000	
4.00998100000000	-7.87687700000000	96.92387200000000	-12.06243100000000	0.35567400000000	0.00000000000000	0.11016600000000	-66.22023100000000	779.51262699999995	-46.78880800000000	0.11529500000000	0.00000000000000	-0.07123200000000	0.00000000000000	-8.09076300000000	0.00000000000000	0.00000000000000	-20.49494300000000	0.00000000000000	
4.01164700000000	-7.53880600000000	103.51194599999999	-12.13286800000000	0.35750600000000	0.00000000000000	0.11058700000000	-67.15241800000000	775.42034400000000	-46.16343900000000	0.11442300000000	0.00000000000000	-0.07108300000000	0.00000000000000	-8.25046000000000	0.00000000000000	0.00000000000000	-20.42742200000000	0.00000000000000	
4.01331200000000	-7.10132100000000	110.07419899999999	-12.11712400000000	0.35920200000000	0.00000000000000	0.11099000000000	-68.07494300000000	771.12450699999999	-45.51628200000000	0.11355300000000	0.00000000000000	-0.07093200000000	0.00000000000000	-8.36282800000000	0.00000000000000	0.00000000000000	-20.35738200000000	0.00000000000000	
